<svg xmlns="http://www.w3.org/2000/svg" width="136.087" height="29.988" viewBox="0 0 717 158">
  <metadata><?xpacket begin="﻿" id="W5M0MpCehiHzreSzNTczkc9d"?>
<x:xmpmeta xmlns:x="adobe:ns:meta/" x:xmptk="Adobe XMP Core 5.6-c138 79.159824, 2016/09/14-01:09:01        ">
   <rdf:RDF xmlns:rdf="http://www.w3.org/1999/02/22-rdf-syntax-ns#">
      <rdf:Description rdf:about=""/>
   </rdf:RDF>
</x:xmpmeta>
                                                                                                    
                                                                                                    
                                                                                                    
                                                                                                    
                                                                                                    
                                                                                                    
                                                                                                    
                                                                                                    
                                                                                                    
                                                                                                    
                                                                                                    
                                                                                                    
                                                                                                    
                                                                                                    
                                                                                                    
                                                                                                    
                                                                                                    
                                                                                                    
                                                                                                    
                                                                                                    
                           
<?xpacket end="w"?></metadata>
<defs>
    <style>
      .cls-1 {
        fill: #f1f1f1;
      }

      .cls-1, .cls-2 {
        fill-rule: evenodd;
      }

      .cls-2 {
        fill: #d5015b;
      }
    </style>
  </defs>
  <path id="anime" class="cls-1" d="M65.482,102.32V63.76q0-13.44-7.36-20.72t-22.24-7.28q-13.44,0-29.12,5.76l3.68,10.72q13.44-4.477,22.72-4.48,8.959,0,13.28,3.84t4.32,12.8v6.24H37.8q-17.76,0-27.44,7.2T0.682,98.48q0,11.362,7.2,18.4t19.68,7.04q16.639,0,25.12-12.64,1.92,6.082,5.92,8.96a22.505,22.505,0,0,0,10.56,3.68l3.36-10.24a10.71,10.71,0,0,1-5.28-3.76q-1.762-2.48-1.76-7.6h0Zm-34.56,10.56q-7.2,0-10.88-3.84t-3.68-11.36q0-17.28,23.36-17.28h11.04V99.76q-7.2,13.121-19.84,13.12h0ZM119.4,35.76a28.711,28.711,0,0,0-14.64,3.84,33.3,33.3,0,0,0-11.12,10.56l-1.28-12.48H79.721V122h14.72V62.16a39.9,39.9,0,0,1,9.6-11.04,19.2,19.2,0,0,1,11.84-3.84q6.558,0,9.92,3.68t3.36,12.64V122h14.72V61.52q0-12-6.48-18.88t-18-6.88h0Zm52.8,1.92h-14.72V122H172.2V37.68Zm99.039-1.92a25.31,25.31,0,0,0-14.16,3.92,39.646,39.646,0,0,0-10.96,11.28,21.942,21.942,0,0,0-7.92-11.2,22.169,22.169,0,0,0-13.36-4q-14.88,0-24.32,14.24l-1.28-12.32H186.6V122h14.72V62.16a50.487,50.487,0,0,1,9.12-11.2,15.961,15.961,0,0,1,10.72-3.68Q233,47.28,233,63.6V122h14.72V62.16q4.958-7.68,9.28-11.28a15.946,15.946,0,0,1,10.56-3.6q11.839,0,11.84,16.32V122h14.72V61.52q0-11.839-6.24-18.8t-16.64-6.96h0ZM371.4,77.36q0-19.519-8.961-30.56t-25.76-11.04a30.836,30.836,0,0,0-18.639,5.76,36.528,36.528,0,0,0-12.161,15.92,60.018,60.018,0,0,0-4.239,23.28q0,20.16,9.84,31.68t27.439,11.52q16,0,29.44-10.56l-6.4-8.8a45.2,45.2,0,0,1-10.721,5.6,34.211,34.211,0,0,1-11.2,1.76,20.407,20.407,0,0,1-15.681-6.56q-6.081-6.559-7.039-20.48h53.759q0.319-3.84.321-7.52h0ZM356.84,74H317.32q1.6-26.557,19.68-26.56,9.918,0,14.88,6.56t4.96,19.04V74Z"/>
  <path id="_." data-name="." class="cls-2" d="M164.681,8.2a9.965,9.965,0,0,0-7.36,2.88,9.769,9.769,0,0,0-2.88,7.2,9.5,9.5,0,0,0,2.88,7.12,10.115,10.115,0,0,0,7.36,2.8,10.33,10.33,0,0,0,7.52-2.8,9.5,9.5,0,0,0,2.88-7.12,9.769,9.769,0,0,0-2.88-7.2,10.173,10.173,0,0,0-7.52-2.88h0Z"/>
  <path id="pahe" class="cls-2" d="M426.364,34.32a29.747,29.747,0,0,0-12.72,2.96,31.523,31.523,0,0,0-11.28,9.2l-1.28-9.44h-22.24V157.52l25.28-2.72V115.76q7.837,8.962,20.64,8.96a28.787,28.787,0,0,0,17.92-5.84,36.648,36.648,0,0,0,11.76-16.16,63.345,63.345,0,0,0,4.08-23.44q0-21.439-7.92-33.2t-24.24-11.76h0Zm-9.28,71.84q-7.842,0-12.96-7.52V62.8a22.749,22.749,0,0,1,6.48-7.28,13.335,13.335,0,0,1,7.76-2.64,11.36,11.36,0,0,1,10.48,5.84q3.438,5.843,3.44,20.88,0,26.561-15.2,26.56h0Zm120.8-8.8V64.4q0-15.038-8.48-22.56t-26.72-7.52a83.86,83.86,0,0,0-15.6,1.6,97.6,97.6,0,0,0-16.4,4.64l5.76,16.64a103.858,103.858,0,0,1,12.16-3.28,52.029,52.029,0,0,1,10.08-1.2q8,0,11.2,2.8t3.2,10.32v3.68h-8.64q-19.36,0-29.6,7.36T464.6,98.16q0,11.843,7.52,19.2t20.16,7.36q17.28,0,25.6-12.64a18.891,18.891,0,0,0,7.76,8.8,31.423,31.423,0,0,0,12.72,3.36l5.28-16.48a8.213,8.213,0,0,1-4.4-3.36q-1.361-2.24-1.36-7.04h0Zm-38.24,9.28a9.519,9.519,0,0,1-7.28-2.8q-2.64-2.8-2.64-7.92,0-6.4,4.24-9.44t12.88-3.04h6.24v15.2a17.712,17.712,0,0,1-5.84,5.92,14.41,14.41,0,0,1-7.6,2.08h0ZM603.8,34.32a29.953,29.953,0,0,0-13.28,2.88,36.7,36.7,0,0,0-11.2,8.8V0.72l-25.28,2.56V122h25.28V63.76q7.039-10.879,14.72-10.88a7.3,7.3,0,0,1,5.92,2.48q2.078,2.483,2.08,8.88V122h25.28V59.92q0-12.158-6.24-18.88T603.8,34.32h0Zm112.64,43.52q0-20.479-10.4-32t-28.8-11.52q-12.48,0-21.44,6a37.821,37.821,0,0,0-13.6,16.32,56.147,56.147,0,0,0-4.64,23.28q0,20.483,11.04,32.64t31.68,12.16a51.89,51.89,0,0,0,33.12-11.84L703,98.8a51.065,51.065,0,0,1-10.4,5.68,27.485,27.485,0,0,1-9.92,1.84q-8.482,0-13.28-4.32t-5.92-15.04h52.48a74.757,74.757,0,0,0,.48-9.12h0Zm-24.8-6.08h-28.32q0.96-11.2,4.48-15.92t10.08-4.72q13.44,0,13.76,19.52v1.12Z"/>
</svg>
